<svg viewBox="0 0 95 39" stroke="var(--color1, #000)" stroke-linecap="round" fill="none" width="77.948718" height="32" xmlns="http://www.w3.org/2000/svg" xmlns:xlink="http://www.w3.org/1999/xlink">
    <style>
        :root, .palette1, :root.light {color: currentColor;
            --color0: #fff;
            --color1: #000;
            --color2: #d9d9d9;
        }
        @media (prefers-color-scheme: dark) {
            :root {color: currentColor;
                --color0: #fff;
                --color1: #000;
                --color2: #d9d9d9;
            }
        }
        .palette0, :root.dark {color: currentColor;
            --color0: #fff;
            --color1: #000;
            --color2: #d9d9d9;
        }
    </style>
    <path stroke-width="2" stroke-linejoin="round" d="M11 11.7156l-10 10 10 10" />
    <path stroke-width="2" stroke-linejoin="round" d="M31 11.7156l10 10-10 10" />
    <path stroke="none" fill="var(--color1, #000)" d="M24.5349 4.3297 15.9481 36.3761c-0.1167 0.4354-0.5643 0.6939-0.9998 0.5772-0.4354-0.1167-0.6939-0.5643-0.5772-0.9998l8.5868-32.0464c0.1167-0.4355 0.5643-0.6939 0.9998-0.5772 0.4355 0.1167 0.6939 0.5643 0.5772 0.9998z" />
    <path stroke="none" fill="var(--color2, #d9d9d9)" d="M22.9579 3.9071c0.1167-0.4355 0.5643-0.6939 0.9998-0.5772 0.4355 0.1167 0.6939 0.5643 0.5772 0.9998l-1.0458 3.9031-1.577-0.4226z" />
    <path d="M25.6948 6.3095l3.154 0.8451" />
    <path d="M17.8096 4.1967l3.1541 0.8451" />
    <path d="M19.6457 0.4983l1.6376 2.8092" />
    <path d="M17.5865 8.1835l2.8228-1.614" />
    <path d="M25.2756 7.8734l1.6377 2.8093" />
    <path d="M26.1497 4.6115l2.8228-1.6141" />
    <path stroke="none" fill="var(--color1, #000)" d="M55.016 14.359c-0.832 0-1.584-0.184-2.256-0.552-0.664-0.368-1.188-0.876-1.572-1.524-0.376-0.656-0.564-1.388-0.564-2.196 0-0.808 0.188-1.536 0.564-2.184 0.384-0.656 0.912-1.168 1.584-1.536 0.672-0.368 1.424-0.552 2.256-0.552 0.624 0 1.2 0.104 1.728 0.312 0.528 0.208 0.976 0.512 1.344 0.912l-0.564 0.564c-0.656-0.664-1.484-0.996-2.484-0.996-0.664 0-1.268 0.152-1.812 0.456-0.544 0.304-0.972 0.72-1.284 1.248-0.304 0.528-0.456 1.12-0.456 1.776 0 0.656 0.152 1.248 0.456 1.776 0.312 0.528 0.74 0.944 1.284 1.248s1.148 0.456 1.812 0.456c1.008 0 1.836-0.336 2.484-1.008l0.564 0.564c-0.368 0.4-0.82 0.708-1.356 0.924-0.528 0.208-1.104 0.312-1.728 0.312zM62.1118 14.347c-0.608 0-1.156-0.136-1.644-0.408-0.488-0.28-0.872-0.664-1.152-1.152s-0.42-1.04-0.42-1.656 0.14-1.168 0.42-1.656c0.28-0.488 0.664-0.868 1.152-1.14 0.488-0.272 1.036-0.408 1.644-0.408 0.608 0 1.156 0.136 1.644 0.408 0.488 0.272 0.868 0.652 1.14 1.14 0.28 0.488 0.42 1.04 0.42 1.656s-0.14 1.168-0.42 1.656c-0.272 0.488-0.652 0.872-1.14 1.152-0.488 0.272-1.036 0.408-1.644 0.408zM62.1118 13.591c0.448 0 0.848-0.1 1.2-0.3 0.36-0.208 0.64-0.5 0.84-0.876s0.3-0.804 0.3-1.284-0.1-0.908-0.3-1.284c-0.2-0.376-0.48-0.664-0.84-0.864-0.352-0.208-0.752-0.312-1.2-0.312-0.448 0-0.852 0.104-1.212 0.312-0.352 0.2-0.632 0.488-0.84 0.864-0.2 0.376-0.3 0.804-0.3 1.284s0.1 0.908 0.3 1.284c0.208 0.376 0.488 0.668 0.84 0.876 0.36 0.2 0.764 0.3 1.212 0.3zM72.8152 5.383v8.904h-0.816v-1.248c-0.256 0.424-0.596 0.748-1.02 0.972-0.416 0.224-0.888 0.336-1.416 0.336-0.592 0-1.128-0.136-1.608-0.408s-0.856-0.652-1.128-1.14-0.408-1.044-0.408-1.668 0.136-1.18 0.408-1.668c0.272-0.488 0.648-0.864 1.128-1.128 0.48-0.272 1.016-0.408 1.608-0.408 0.512 0 0.972 0.108 1.38 0.324 0.416 0.208 0.756 0.516 1.02 0.924V5.383zM69.6352 13.591c0.44 0 0.836-0.1 1.188-0.3 0.36-0.208 0.64-0.5 0.84-0.876 0.208-0.376 0.312-0.804 0.312-1.284s-0.104-0.908-0.312-1.284c-0.2-0.376-0.48-0.664-0.84-0.864-0.352-0.208-0.748-0.312-1.188-0.312-0.448 0-0.852 0.104-1.212 0.312-0.352 0.2-0.632 0.488-0.84 0.864-0.2 0.376-0.3 0.804-0.3 1.284s0.1 0.908 0.3 1.284c0.208 0.376 0.488 0.668 0.84 0.876 0.36 0.2 0.764 0.3 1.212 0.3zM75.188 7.975l0.852 0v6.312h-0.852zM75.62 6.595c-0.176 0-0.324-0.06-0.444-0.18-0.12-0.12-0.18-0.264-0.18-0.432 0-0.16 0.06-0.3 0.18-0.42 0.12-0.12 0.268-0.18 0.444-0.18 0.176 0 0.324 0.06 0.444 0.18 0.12 0.112 0.18 0.248 0.18 0.408 0 0.176-0.06 0.324-0.18 0.444-0.12 0.12-0.268 0.18-0.444 0.18zM81.6267 7.927c0.792 0 1.42 0.232 1.884 0.696 0.472 0.456 0.708 1.124 0.708 2.004v3.66h-0.852v-3.576c0-0.656-0.164-1.156-0.492-1.5-0.328-0.344-0.796-0.516-1.404-0.516-0.68 0-1.22 0.204-1.62 0.612-0.392 0.4-0.588 0.956-0.588 1.668v3.312h-0.852V7.975l0.816 0v1.164c0.232-0.384 0.552-0.68 0.96-0.888 0.416-0.216 0.896-0.324 1.44-0.324zM92.3992 7.975v5.544c0 1.072-0.264 1.864-0.792 2.376-0.52 0.52-1.308 0.78-2.364 0.78-0.584 0-1.14-0.088-1.668-0.264-0.52-0.168-0.944-0.404-1.272-0.708l0.432-0.648c0.304 0.272 0.672 0.484 1.104 0.636 0.44 0.152 0.9 0.228 1.38 0.228 0.8 0 1.388-0.188 1.764-0.564 0.376-0.368 0.564-0.944 0.564-1.728v-0.804c-0.264 0.4-0.612 0.704-1.044 0.912-0.424 0.208-0.896 0.312-1.416 0.312-0.592 0-1.132-0.128-1.62-0.384-0.48-0.264-0.86-0.628-1.14-1.092-0.272-0.472-0.408-1.004-0.408-1.596s0.136-1.12 0.408-1.584c0.28-0.464 0.66-0.824 1.14-1.08 0.48-0.256 1.02-0.384 1.62-0.384 0.536 0 1.02 0.108 1.452 0.324 0.432 0.216 0.78 0.528 1.044 0.936V7.975zM89.1712 13.291c0.456 0 0.868-0.096 1.236-0.288 0.368-0.2 0.652-0.476 0.852-0.828 0.208-0.352 0.312-0.752 0.312-1.2s-0.104-0.844-0.312-1.188c-0.2-0.352-0.484-0.624-0.852-0.816-0.36-0.2-0.772-0.3-1.236-0.3-0.456 0-0.868 0.096-1.236 0.288-0.36 0.192-0.644 0.464-0.852 0.816-0.2 0.352-0.3 0.752-0.3 1.2s0.1 0.848 0.3 1.2c0.208 0.352 0.492 0.628 0.852 0.828 0.368 0.192 0.78 0.288 1.236 0.288z" />
    <path stroke="none" fill="var(--color1, #000)" d="M77.957 22.7401c-0.1679 0.2461-0.3554 0.5411-0.5625 0.8848-0.207 0.3438-0.4277 0.7285-0.6621 1.1543-0.1992 0.3555-0.3965 0.7344-0.5918 1.1367-0.1914 0.3985-0.375 0.7949-0.5508 1.1895-0.1757 0.3906-0.3378 0.7676-0.4863 1.1308-0.1484 0.3594-0.2773 0.6778-0.3867 0.9551-0.1094 0.2735-0.1953 0.4942-0.2578 0.6621-0.0625 0.1641-0.0938 0.2481-0.0938 0.252-0.039 0.0976-0.1093 0.1465-0.2109 0.1465-0.0508 0-0.0957-0.0157-0.1348-0.0469-0.039-0.0352-0.0644-0.0781-0.0761-0.1289 0-39e-4-0.0196-0.086-0.0586-0.2461-0.0352-0.1641-0.084-0.3809-0.1465-0.6504-0.0625-0.2734-0.1348-0.5859-0.2168-0.9375-0.0781-0.3555-0.1621-0.7246-0.252-1.1074-0.0859-0.3867-0.1738-0.7774-0.2636-1.1719-0.0899-0.3945-0.1739-0.7695-0.252-1.125-0.2617 0.7383-0.5254 1.3926-0.791 1.9629-0.2617 0.5664-0.5313 1.0605-0.8086 1.4824-0.2773 0.418-0.5645 0.7695-0.8613 1.0547-0.293 0.2852-0.6016 0.5156-0.9258 0.6914-0.3203 0.1719-0.6582 0.2949-1.0137 0.3691-0.3515 0.0743-0.7246 0.1114-1.1191 0.1114-0.2032 0-0.4199-0.0235-0.6504-0.0703-0.2305-0.043-0.459-0.1114-0.6856-0.2051-0.2265-0.0938-0.4433-0.211-0.6504-0.3516-0.207-0.1406-0.3906-0.3066-0.5507-0.498-0.1602-0.1953-0.2871-0.4141-0.3809-0.6563-0.0937-0.2461-0.1406-0.5195-0.1406-0.8203 0-0.3164 0.0664-0.6055 0.1992-0.8672 0.1328-0.2656 0.3125-0.4922 0.5391-0.6797 0.2265-0.1914 0.4882-0.3398 0.7851-0.4453 0.3008-0.1054 0.6172-0.1582 0.9492-0.1582 0.2422 0 0.459 0.0215 0.6504 0.0645 0.1953 0.039 0.3672 0.0898 0.5157 0.1523 0.1484 0.0625 0.2753 0.1309 0.3808 0.2051s0.1934 0.1426 0.2637 0.2051 0.1211 0.1172 0.1523 0.164c0.0313 0.043 0.0489 0.0645 0.0528 0.0645 0.0234 0.043 0.0351 0.084 0.0351 0.123 0 0.0547-0.0215 0.1055-0.0644 0.1524-0.0391 0.0469-0.0918 0.0703-0.1582 0.0703-0.0782 0-0.1407-0.0332-0.1875-0.0996-39e-4-39e-4-0.0352-0.0391-0.0938-0.1055-0.0586-0.0703-0.1543-0.1465-0.2871-0.2285s-0.3047-0.1563-0.5156-0.2227c-0.2071-0.0664-0.461-0.0996-0.7617-0.0996-0.2735 0-0.5332 0.043-0.7793 0.1289-0.2422 0.0821-0.4551 0.1993-0.6387 0.3516-0.1797 0.1523-0.3242 0.334-0.4336 0.5449-0.1055 0.2071-0.1582 0.4356-0.1582 0.6856 0 0.2461 0.041 0.4707 0.123 0.6738 0.0821 0.2031 0.1914 0.3848 0.3282 0.5449 0.1367 0.1602 0.2949 0.2988 0.4746 0.416s0.3672 0.2149 0.5625 0.293c0.1953 0.0742 0.3906 0.1309 0.5859 0.1699 0.1992 0.0352 0.3867 0.0528 0.5625 0.0528 0.2969 0 0.586-0.0215 0.8672-0.0645 0.2852-0.0469 0.5645-0.1328 0.8379-0.2578 0.2773-0.125 0.5488-0.2969 0.8144-0.5156 0.2657-0.2188 0.5293-0.5039 0.7911-0.8555 0.2617-0.3516 0.5195-0.7754 0.7734-1.2715 0.2578-0.4961 0.5156-1.082 0.7734-1.7578 0.0782-0.2031 0.1543-0.4219 0.2286-0.6562 0.0742-0.2344 0.1503-0.4707 0.2285-0.709-0.0664-0.3438-0.1153-0.6367-0.1465-0.8789-0.0274-0.2422-0.041-0.4434-0.041-0.6036 0-0.1718 0.0136-0.3085 0.041-0.4101 0.0273-0.1016 0.0625-0.1777 0.1054-0.2285 0.043-0.0547 0.0899-0.0879 0.1407-0.0996 0.0508-0.0157 0.0996-0.0235 0.1465-0.0235 0.039 0 0.082 78e-4 0.1289 0.0235 0.0507 0.0156 0.0957 0.0507 0.1347 0.1054 0.043 0.0508 0.0782 0.127 0.1055 0.2286 0.0273 0.1015 0.041 0.2382 0.041 0.4101 0 0.1875-0.0176 0.4043-0.0527 0.6504-0.0352 0.2461-0.0879 0.5176-0.1582 0.8145 0.0508 0.2382 0.1094 0.5039 0.1758 0.7968 0.0664 0.293 0.1347 0.5977 0.205 0.9141 0.0704 0.3125 0.1426 0.6328 0.2168 0.9609 0.0743 0.3282 0.1465 0.6485 0.2168 0.961s0.1368 0.6113 0.1992 0.8964c0.0665 0.2852 0.127 0.543 0.1817 0.7735 0.1055-0.2656 0.2344-0.586 0.3867-0.961 0.1524-0.3789 0.3223-0.7792 0.5098-1.2011 0.1875-0.4258 0.3847-0.8574 0.5918-1.2949 0.2109-0.4415 0.4258-0.8575 0.6445-1.2481 0.3086-0.5547 0.5918-1.0293 0.8496-1.4238 0.2578-0.3985 0.4805-0.7266 0.668-0.9844s0.334-0.4473 0.4394-0.5684c0.1094-0.125 0.168-0.1933 0.1758-0.205 0.043-0.043 0.0957-0.0645 0.1582-0.0645 0.0664 0 0.1192 0.0235 0.1582 0.0703 0.043 0.043 0.0645 0.0938 0.0645 0.1524 0 0.0273-59e-4 0.0547-0.0176 0.082 0 39e-4-0.0234 0.0625-0.0703 0.1758-0.043 0.1094-0.0996 0.2617-0.1699 0.457-0.0664 0.1914-0.1407 0.418-0.2227 0.6797-0.082 0.2578-0.1621 0.5371-0.2402 0.8379-0.0782 0.2969-0.1485 0.6094-0.211 0.9375-0.0586 0.3242-0.1015 0.6484-0.1289 0.9726-0.0117 0.1485-0.0215 0.3047-0.0293 0.4688-78e-4 0.1602-0.0117 0.3223-0.0117 0.4863 0 0.2578 0.0117 0.5176 0.0352 0.7793 0.0234 0.2617 0.0625 0.5137 0.1172 0.7559 0.0546 0.2422 0.1289 0.4707 0.2226 0.6855 0.0938 0.211 0.209 0.3965 0.3457 0.5567 0.1367 0.1601 0.2988 0.289 0.4863 0.3867 0.1914 0.0976 0.4122 0.1504 0.6622 0.1582 0.0625 39e-4 0.1113 0.0312 0.1464 0.082 0.0391 0.0469 0.0586 0.0977 0.0586 0.1524s-0.0215 0.1035-0.0644 0.1465c-0.043 0.0429-0.0938 0.0644-0.1524 0.0644-0.0625 0-0.125-59e-4-0.1875-0.0176-0.2812-0.039-0.5293-0.1191-0.7441-0.2402-0.2148-0.125-0.4004-0.2774-0.5566-0.457-0.1563-0.1836-0.2872-0.3907-0.3926-0.6211-0.1016-0.2344-0.1836-0.4844-0.2461-0.75-0.0625-0.2657-0.1074-0.541-0.1348-0.8262-0.0234-0.2891-0.0351-0.5801-0.0351-0.8731 0-0.3476 0.0175-0.6953 0.0527-1.0429 0.0351-0.3477 0.082-0.6856 0.1406-1.0137 0.0586-0.332 0.127-0.6523 0.2051-0.9609s0.1582-0.5957 0.2402-0.8614zM84.7012 28.6523c-0.0157 0.0312-0.0489 0.0976-0.0996 0.1992-0.0469 0.0976-0.1094 0.2109-0.1875 0.3398-0.0743 0.1289-0.1621 0.2637-0.2637 0.4043s-0.2149 0.2695-0.3399 0.3867-0.2597 0.2149-0.4043 0.293c-0.1445 0.0742-0.2968 0.1113-0.457 0.1113-0.2265 0-0.418-0.0722-0.5742-0.2168-0.1523-0.1445-0.2637-0.3261-0.334-0.5449-0.1328 0.2227-0.291 0.4004-0.4746 0.5332-0.1836 0.1289-0.3672 0.1934-0.5508 0.1934-0.1445 0-0.2754-0.0254-0.3926-0.0762-0.1171-0.0547-0.2168-0.1289-0.2988-0.2227-0.082-0.0976-0.1465-0.2109-0.1933-0.3398-0.043-0.1289-0.0645-0.2695-0.0645-0.4219 0-0.3047 0.0508-0.5722 0.1524-0.8027 0.1054-0.2344 0.2382-0.4297 0.3984-0.5859 0.1601-0.1563 0.3359-0.2735 0.5273-0.3516 0.1953-0.0781 0.3828-0.1172 0.5625-0.1172 0.1211 0 0.2325 0.0176 0.334 0.0527 0.1016 0.0313 0.1875 0.0664 0.2578 0.1055 0.0742 0.0391 0.1309 0.0762 0.17 0.1113 0.039 0.0313 0.0605 0.0489 0.0644 0.0528 0.043 0.0507 0.0645 0.1035 0.0645 0.1582 0 0.0586-0.0215 0.1113-0.0645 0.1582-0.043 0.0429-0.0937 0.0644-0.1523 0.0644-0.0625 0-0.1153-0.0215-0.1582-0.0644-79e-4-78e-4-0.0254-0.0215-0.0528-0.041-0.0273-0.0235-0.0644-0.0469-0.1113-0.0704-0.0469-0.0234-0.1035-0.0429-0.1699-0.0585-0.0625-0.0196-0.1348-0.0293-0.2168-0.0293-0.1211 0-0.25 0.0273-0.3867 0.082-0.1368 0.0547-0.2618 0.1406-0.375 0.2578-0.1133 0.1133-0.209 0.2578-0.2872 0.4336-0.0742 0.1719-0.1113 0.3769-0.1113 0.6152 0 0.0742 78e-4 0.1504 0.0235 0.2285 0.0156 0.0743 0.0429 0.1426 0.082 0.2051 0.039 0.0625 0.0918 0.1133 0.1582 0.1524 0.0664 0.039 0.1484 0.0586 0.2461 0.0586 0.0703 0 0.1504-0.0235 0.2402-0.0704 0.0938-0.0468 0.1817-0.1191 0.2637-0.2168 0.0859-0.0976 0.1621-0.2207 0.2285-0.3691 0.0703-0.1484 0.1191-0.3242 0.1465-0.5273 78e-4-0.0547 0.0332-0.0996 0.0762-0.1348 0.0429-0.0391 0.0937-0.0586 0.1523-0.0586 0.0547 0 0.1016 0.0215 0.1406 0.0645 0.043 0.0429 0.0664 0.0918 0.0703 0.1464 4e-3 0.0743 0.0118 0.1797 0.0235 0.3164 0.0117 0.1329 0.0371 0.2657 0.0762 0.3985 0.0429 0.1328 0.1054 0.248 0.1875 0.3457 0.082 0.0976 0.1953 0.1465 0.3398 0.1465 0.0937 0 0.1855-0.0254 0.2754-0.0762 0.0937-0.0508 0.1836-0.1172 0.2695-0.1992 0.0899-0.086 0.1738-0.1817 0.252-0.2871 0.082-0.1094 0.1562-0.2188 0.2226-0.3282 0.0664-0.1093 0.125-0.2148 0.1758-0.3164 0.0508-0.1015 0.0938-0.1894 0.1289-0.2636 0.0195-0.043 0.0469-0.0762 0.082-0.0996 0.0391-0.0235 0.0801-0.0352 0.1231-0.0352 0.0664 0 0.1191 0.0254 0.1582 0.0762 0.043 0.0469 0.0645 0.0976 0.0645 0.1523 0 0.0274-59e-4 0.0547-0.0176 0.0821zM86.418 30.8612c0.7343-0.957 1.2441-1.7519 1.5293-2.3847 0.0195-0.043 0.0449-0.0742 0.0761-0.0938 0.0352-0.0234 0.0743-0.0351 0.1172-0.0351 0.0664 0 0.1211 0.0234 0.1641 0.0703 0.043 0.0429 0.0644 0.0937 0.0644 0.1523 0 0.0274-58e-4 0.0547-0.0175 0.0821-0.1719 0.3906-0.4161 0.8261-0.7325 1.3066s-0.7168 1.0234-1.2011 1.6289c0 0.2461 19e-4 0.4922 58e-4 0.7383s59e-4 0.5156 59e-4 0.8086c0 0.2929-78e-4 0.582-0.0235 0.8672-0.0117 0.289-0.0351 0.5625-0.0703 0.8203-0.0351 0.2617-0.0839 0.5019-0.1464 0.7207-0.0586 0.2226-0.1368 0.414-0.2344 0.5742-0.0938 0.1641-0.209 0.291-0.3457 0.3809-0.1328 0.0937-0.291 0.1406-0.4746 0.1406-0.2618 0-0.4629-0.0996-0.6036-0.2988-0.1406-0.1993-0.2109-0.4825-0.2109-0.8497 0-0.1953 0.0176-0.4082 0.0527-0.6386 0.0391-0.2266 0.0938-0.461 0.1641-0.7032 0.0703-0.2421 0.1543-0.4882 0.252-0.7382 0.1015-0.2461 0.2129-0.4864 0.3339-0.7207 0.1211-0.2344 0.252-0.459 0.3926-0.6739 0.1446-0.2148 0.2969-0.4101 0.4571-0.5859 39e-4-0.2734 58e-4-0.5449 58e-4-0.8145 39e-4-0.2695 98e-4-0.5175 0.0176-0.7441-0.1172 0.1484-0.2578 0.2656-0.4219 0.3516-0.1601 0.0859-0.3203 0.1289-0.4804 0.1289-0.1368 0-0.2618-0.0254-0.375-0.0762-0.1094-0.0547-0.2032-0.1289-0.2813-0.2227-0.0781-0.0976-0.1387-0.2109-0.1816-0.3398-0.043-0.1289-0.0645-0.2695-0.0645-0.4219 0-0.3047 0.0508-0.5722 0.1524-0.8027 0.1054-0.2344 0.2382-0.4297 0.3984-0.5859 0.1601-0.1563 0.3359-0.2735 0.5273-0.3516 0.1953-0.0781 0.3828-0.1172 0.5625-0.1172 0.1211 0 0.2325 0.0156 0.334 0.0469 0.1016 0.0312 0.1875 0.0664 0.2578 0.1054 0.0742 0.0391 0.1309 0.0762 0.17 0.1114 0.039 0.0351 0.0605 0.0547 0.0644 0.0586 0.043 0.0468 0.0645 0.0996 0.0645 0.1582s-0.0215 0.1113-0.0645 0.1582c-0.043 0.0429-0.0937 0.0644-0.1523 0.0644-0.0547 0-0.1075-0.0215-0.1582-0.0644-0.0157-0.0117-0.0372-0.0274-0.0645-0.0469-0.0234-0.0234-0.0566-0.0469-0.0996-0.0703-0.0391-0.0235-0.0879-0.043-0.1465-0.0586-0.0547-0.0156-0.1211-0.0234-0.1992-0.0234-0.1172 0-0.2461 0.0273-0.3867 0.082-0.1407 0.0508-0.2715 0.1328-0.3926 0.2461s-0.2227 0.2597-0.3047 0.4394c-0.082 0.1758-0.123 0.3887-0.123 0.6387 0 0.1875 0.041 0.3398 0.123 0.457 0.082 0.1133 0.209 0.17 0.3809 0.17 0.082 0 0.1679-0.0235 0.2578-0.0704 0.0937-0.0468 0.1836-0.1191 0.2695-0.2168 0.0859-0.0976 0.1602-0.2207 0.2227-0.3691 0.0664-0.1484 0.1132-0.3242 0.1406-0.5273 78e-4-0.0547 0.0332-0.0996 0.0762-0.1348 0.0429-0.0391 0.0937-0.0586 0.1523-0.0586 0.0664 0 0.1172 0.0234 0.1523 0.0703 0.0391 0.0469 0.0586 0.0996 0.0586 0.1582 0 39e-4-19e-4 0.0645-58e-4 0.1817-39e-4 0.1132-78e-4 0.2656-0.0117 0.457s-98e-4 0.4141-0.0176 0.668c-39e-4 0.25-78e-4 0.5156-0.0117 0.7968zM85.9727 32.1444c-0.1836 0.2539-0.3497 0.5293-0.4981 0.8262-0.1484 0.3008-0.2754 0.6035-0.3808 0.9082-0.1055 0.3047-0.1876 0.5996-0.2461 0.8848-0.0547 0.289-0.0821 0.5469-0.0821 0.7734 0 0.1445 0.0117 0.2598 0.0352 0.3457 0.0273 0.086 0.0586 0.1524 0.0937 0.1992 0.0391 0.0469 0.0801 0.0782 0.1231 0.0938 0.0469 0.0156 0.0898 0.0234 0.1289 0.0234 0.1211 0 0.2265-0.0488 0.3164-0.1465 0.0898-0.0976 0.166-0.2285 0.2285-0.3925 0.0625-0.1602 0.1133-0.3457 0.1524-0.5567 0.039-0.2109 0.0683-0.4297 0.0878-0.6562 0.0196-0.2227 0.0332-0.4453 0.0411-0.668 78e-4-0.2227 0.0117-0.4277 0.0117-0.6152 0-0.168 0-0.336 0-0.5039 0-0.168-39e-4-0.3399-0.0117-0.5157zM88.9082 25.6874c0 0.1484-0.0527 0.2754-0.1582 0.3809-0.1016 0.1015-0.2266 0.1523-0.375 0.1523s-0.2754-0.0508-0.3809-0.1523c-0.1015-0.1055-0.1523-0.2325-0.1523-0.3809 0-0.0742 0.0137-0.1426 0.041-0.2051 0.0274-0.0664 0.0645-0.123 0.1113-0.1699 0.0508-0.0508 0.1075-0.0898 0.17-0.1172 0.0664-0.0273 0.1367-0.041 0.2109-0.041s0.1426 0.0137 0.2051 0.041c0.0664 0.0274 0.123 0.0664 0.1699 0.1172 0.0508 0.0469 0.0898 0.1035 0.1172 0.1699 0.0273 0.0625 0.041 0.1309 0.041 0.2051zM87.959 29.121c0-0.5625 0.0351-1.123 0.1055-1.6816 78e-4-0.0547 0.0312-0.1016 0.0703-0.1407 0.0429-0.0429 0.0976-0.0644 0.164-0.0644 0.0586 0 0.1074 0.0234 0.1465 0.0703 0.0391 0.043 0.0586 0.0937 0.0586 0.1523 0 0.0235-59e-4 0.0938-0.0176 0.211-78e-4 0.1172-0.0195 0.2578-0.0351 0.4219-0.0117 0.1601-0.0235 0.332-0.0352 0.5156-78e-4 0.1797-0.0117 0.3457-0.0117 0.498 0 0.2071 0.0195 0.375 0.0586 0.5039 0.043 0.125 0.0957 0.2227 0.1582 0.293 0.0664 0.0703 0.1348 0.1172 0.2051 0.1406 0.0742 0.0235 0.1445 0.0352 0.2109 0.0352 0.1094 0 0.2227-0.0391 0.3399-0.1172 0.1171-0.0781 0.2363-0.1875 0.3574-0.3281 0.125-0.1407 0.25-0.3086 0.375-0.5039 0.125-0.1993 0.248-0.42 0.3691-0.6621 0.0195-0.0391 0.0469-0.0684 0.082-0.0879 0.0352-0.0235 0.0743-0.0352 0.1172-0.0352 0.0625 0 0.1133 0.0234 0.1524 0.0703 0.0429 0.0469 0.0644 0.0977 0.0644 0.1524 0 0.039-78e-4 0.0722-0.0234 0.0996-0.0469 0.0898-0.1055 0.1992-0.1758 0.3281s-0.1504 0.2617-0.2402 0.3984c-0.0899 0.1368-0.1895 0.2735-0.2989 0.4102-0.1054 0.1328-0.2187 0.2539-0.3398 0.3633-0.1211 0.1054-0.248 0.1914-0.3809 0.2578-0.1328 0.0664-0.2675 0.0996-0.4043 0.0996-0.1757 0-0.33-0.0371-0.4628-0.1113-0.1329-0.0743-0.2461-0.1739-0.3399-0.2989-0.0898-0.125-0.1582-0.2714-0.2051-0.4394-0.0429-0.1719-0.0644-0.3555-0.0644-0.5508zM88.5801 25.6874c0-0.0547-0.0215-0.1016-0.0645-0.1406-0.039-0.043-0.0859-0.0645-0.1406-0.0645s-0.1016 0.0215-0.1406 0.0645c-0.0391 0.039-0.0586 0.0859-0.0586 0.1406s0.0195 0.1016 0.0586 0.1406c0.039 0.0391 0.0859 0.0586 0.1406 0.0586s0.1016-0.0195 0.1406-0.0586c0.043-0.039 0.0645-0.0859 0.0645-0.1406zM94.3047 28.664c-0.0235 0.0429-0.0645 0.1211-0.1231 0.2343-0.0546 0.1133-0.1308 0.2422-0.2285 0.3868-0.0937 0.1406-0.207 0.2871-0.3398 0.4394-0.1328 0.1524-0.2852 0.293-0.4571 0.4219-0.1718 0.125-0.3652 0.2285-0.58 0.3105-0.211 0.0821-0.4414 0.1231-0.6914 0.1231-0.2227 0-0.42-0.041-0.5918-0.1231-0.1719-0.0781-0.3184-0.1894-0.4395-0.3339-0.1211-0.1485-0.2129-0.3223-0.2754-0.5215s-0.0937-0.42-0.0937-0.6621c0-0.2344 0.0332-0.4532 0.0996-0.6563 0.0664-0.207 0.1562-0.3867 0.2695-0.5391 0.1172-0.1523 0.252-0.2714 0.4043-0.3574 0.1524-0.0898 0.3145-0.1347 0.4863-0.1347 0.1289 0 0.2461 0.0234 0.3516 0.0703 0.1055 0.0429 0.1934 0.1015 0.2637 0.1758 0.0742 0.0742 0.1308 0.1562 0.1699 0.246 0.043 0.0899 0.0645 0.1797 0.0645 0.2696 0 0.0859-0.0118 0.166-0.0352 0.2402-0.0195 0.0742-0.0469 0.1406-0.082 0.1992-0.0313 0.0547-0.0684 0.0996-0.1114 0.1348-0.0429 0.0312-0.0859 0.0469-0.1289 0.0469-0.0664 0-0.1211-0.0215-0.164-0.0645-0.0391-0.0429-0.0586-0.0957-0.0586-0.1582 0-0.0312 58e-4-0.0586 0.0175-0.082 0.0157-0.0235 0.0313-0.0469 0.0469-0.0703 0.0196-0.0274 0.0352-0.0586 0.0469-0.0938 0.0156-0.039 0.0234-0.0879 0.0234-0.1465 0-0.082-0.039-0.1562-0.1172-0.2226-0.0742-0.0664-0.1699-0.0996-0.2871-0.0996-0.1093 0-0.2148 0.0332-0.3164 0.0996-0.0976 0.0664-0.1836 0.1562-0.2578 0.2695-0.0742 0.1094-0.1347 0.2402-0.1816 0.3926-0.043 0.1484-0.0645 0.3066-0.0645 0.4746 0 0.1602 0.0196 0.3125 0.0586 0.457 0.0391 0.1446 0.0977 0.2735 0.1758 0.3868 0.0781 0.1093 0.1758 0.1972 0.293 0.2636 0.1211 0.0664 0.2636 0.0996 0.4277 0.0996 0.2109 0 0.4063-0.0371 0.5859-0.1113 0.1797-0.0781 0.3438-0.1758 0.4922-0.293 0.1485-0.1172 0.2793-0.2441 0.3926-0.3808 0.1133-0.1406 0.209-0.2715 0.2871-0.3926 0.0821-0.125 0.1445-0.2324 0.1875-0.3223 0.0469-0.0937 0.0742-0.1523 0.082-0.1757 0.0157-0.0391 0.0411-0.0684 0.0762-0.0879 0.0391-0.0235 0.0801-0.0352 0.1231-0.0352 0.0664 0 0.1191 0.0234 0.1582 0.0703 0.0429 0.0469 0.0644 0.0996 0.0644 0.1582 0 0.0235-78e-4 0.0547-0.0234 0.0938z" />
</svg>